:SAMPLES-PER-SECOND 30
:FRAME-RANGE 1-1390
:FULLY-SPECIFIED
:DEGREES
1086
root  -35.1652 40.4959 -26.225 173.191 -65.9034 178.607
RightUpLeg  -88.7007 -11.7949 60.5874
RightLeg  121.679 2.32057 -2.8042
RightFoot  -36.2464 0.315989 2.55241
RightToes  6.35937e-011 1.2921e-014 -6.02303e-014
Spine  14.9751 -2.34447 4.16582
Spine1  -4.32812 0.849148 -3.99794
HEad  -6.07919 -40.7133 21.8876
LeftShoulder1  3.39265 -10.5081 -18.2276
LeftArm  36.0611 -25.5767 -68.6446
LeftForeArm  35.5029 -0.528844 -17.9583
LeftHand  -0.0301172 7.30825 0.545225
RightShoulder  2.87161 7.20375 21.1096
RightArm  -2.32911 34.3768 94.0504
RightForeArm  112.939 -3.65541 5.21129
RightHand  1.51354 -18.1924 -13.9974
LeftUpLeg  -8.31829 -23.1018 -4.61022
LeftLeg  31.6134 -2.66619 -1.40233
LeftFoot  -6.82438 0.199776 -4.02688
LeftToes  4.52251e-011 4.07896e-011 -5.42348e-012
1087
root  -35.7913 39.9145 -26.7623 177.281 -65.062 175.469
RightUpLeg  -88.5911 -12.16 58.7102
RightLeg  121.541 3.185 -4.11877
RightFoot  -35.8887 0.215888 2.11903
RightToes  6.35937e-011 1.2921e-014 -6.02303e-014
Spine  17.1325 -2.50857 3.30714
Spine1  -4.76249 0.693121 -4.20283
HEad  -10.0309 -39.842 22.9516
LeftShoulder1  3.43031 -10.8245 -17.9193
LeftArm  36.2272 -26.8803 -69.3399
LeftForeArm  35.318 -0.698125 -17.9696
LeftHand  -0.0348341 7.39607 0.296048
RightShoulder  2.85394 7.27562 20.732
RightArm  -2.31761 34.3268 94.5139
RightForeArm  113.021 -3.63733 5.12437
RightHand  1.51902 -18.1703 -14.0677
LeftUpLeg  -14.1565 -24.8016 -4.26015
LeftLeg  27.9784 -1.11502 -0.283352
LeftFoot  -10.5335 0.0929808 -4.23326
LeftToes  4.52251e-011 4.07896e-011 -5.42348e-012
1088
root  -36.5815 38.8618 -27.3041 179.228 -63.2832 174.078
RightUpLeg  -87.3446 -11.8653 57.5933
RightLeg  121.46 4.87343 -6.65913
RightFoot  -36.2347 0.149593 1.79934
RightToes  6.35937e-011 1.2921e-014 -6.02303e-014
Spine  18.3813 -2.562 3.2446
Spine1  -4.36328 0.626513 -4.32851
HEad  -11.2964 -39.0837 21.9692
LeftShoulder1  3.43475 -11.0207 -17.5913
LeftArm  34.8835 -27.0642 -69.3653
LeftForeArm  35.4171 -0.347924 -17.9558
LeftHand  -0.0371902 7.04366 0.0796971
RightShoulder  2.86572 7.46504 20.3415
RightArm  -1.92783 34.3878 95.3633
RightForeArm  114.187 -3.57994 5.10562
RightHand  1.5451 -18.1436 -14.3208
LeftUpLeg  -18.9669 -25.9003 -3.44698
LeftLeg  26.4441 -1.4908 -0.452014
LeftFoot  -10.6868 0.103207 -6.86332
LeftToes  4.52251e-011 4.07896e-011 -5.42348e-012
1089
root  -37.5818 37.4768 -27.9459 178.165 -60.1236 173.732
RightUpLeg  -84.6147 -11.5919 55.537
RightLeg  122.626 5.61219 -7.41222
RightFoot  -35.4126 0.0523428 1.3793
RightToes  6.35937e-011 1.2921e-014 -6.02303e-014
Spine  19.4029 -2.44904 3.46384
Spine1  -3.11092 0.867013 -4.93914
HEad  -10.2157 -39.1245 19.8632
LeftShoulder1  3.32781 -10.9965 -16.823
LeftArm  44.8516 -25.846 -69.2493
LeftForeArm  25.0747 -3.06219 -18.2599
LeftHand  -0.0331939 6.33577 0.144958
RightShoulder  2.89262 7.46782 20.6025
RightArm  -1.5467 33.821 96.2463
RightForeArm  120.677 -3.27649 5.07355
RightHand  1.51257 -18.7775 -13.4035
LeftUpLeg  -19.5093 -25.9223 -4.0248
LeftLeg  27.3619 -5.07119 -2.48798
LeftFoot  -2.94994 0.384519 -4.99913
LeftToes  4.52251e-011 4.07896e-011 -5.42348e-012
1090
root  -38.6857 35.8317 -28.5251 176.566 -57.6978 172.532
RightUpLeg  -83.4833 -11.9942 54.0886
RightLeg  124.222 7.3409 -9.27237
RightFoot  -35.1221 -0.388649 -0.707841
RightToes  6.35937e-011 1.2921e-014 -6.02303e-014
Spine  21.3196 -2.95513 2.83551
Spine1  -2.60609 0.271082 -5.06021
HEad  -9.92225 -39.6978 20.0759
LeftShoulder1  3.01441 -10.0316 -16.1007
LeftArm  48.7262 -25.1223 -69.1706
LeftForeArm  19.1374 -3.90621 -18.3873
LeftHand  -0.0310558 5.93205 0.22067
RightShoulder  2.7715 6.73534 21.4025
RightArm  0.363426 33.0618 97.5099
RightForeArm  126.072 -3.21692 6.17815
RightHand  1.86156 -21.069 -13.9689
LeftUpLeg  -22.4795 -24.8749 -7.27318
LeftLeg  43.6261 -2.13779 -1.75748
LeftFoot  -10.5016 0.0652755 -0.302964
LeftToes  4.52251e-011 4.07896e-011 -5.42348e-012
1091
root  -39.686 35.0559 -29.346 174.813 -54.9592 173.167
RightUpLeg  -81.5013 -12.9036 54.6815
RightLeg  122.834 8.07555 -10.7818
RightFoot  -35.4253 -0.406946 -0.774427
RightToes  6.35937e-011 1.2921e-014 -6.02303e-014
Spine  20.3704 -2.33973 3.18515
Spine1  -0.700128 0.951135 -5.06484
HEad  -10.0793 -41.8218 20.7313
LeftShoulder1  2.99411 -10.4436 -15.1971
LeftArm  49.1653 -26.3772 -70.712
LeftForeArm  20.6525 -4.20475 -18.2688
LeftHand  -0.0382882 6.45005 0.603712
RightShoulder  2.8567 6.9753 21.6022
RightArm  2.46407 33.0964 96.3513
RightForeArm  121.112 -3.77278 8.25658
RightHand  2.23724 -21.0535 -16.6057
LeftUpLeg  -22.1445 -23.6088 -8.10145
LeftLeg  50.8476 -0.621246 -0.331091
LeftFoot  -16.1801 0.0939358 -0.0739337
LeftToes  4.52251e-011 4.07896e-011 -5.42348e-012
1092
root  -40.5886 34.7237 -30.2825 173.585 -50.8624 174.089
RightUpLeg  -80.4123 -12.3955 56.7587
RightLeg  122.2 7.33811 -10.0016
RightFoot  -34.6494 -0.251824 -0.0752984
RightToes  6.35937e-011 1.2921e-014 -6.02303e-014
Spine  19.9795 -1.54145 3.28083
Spine1  -1.35023 1.72663 -5.32004
HEad  -8.4286 -42.5925 22.7164
LeftShoulder1  2.93343 -10.339 -14.8931
LeftArm  57.2696 -25.8906 -70.1944
LeftForeArm  14.3085 -6.65158 -17.926
LeftHand  -0.0360602 6.34809 -0.102926
RightShoulder  2.95243 7.03053 22.4328
RightArm  0.796429 33.558 96.4706
RightForeArm  121.791 -3.51305 6.83119
RightHand  2.18254 -20.9272 -16.3522
LeftUpLeg  -20.7522 -20.6054 -7.82835
LeftLeg  54.5875 0.186492 0.812094
LeftFoot  -20.5864 0.0981358 -0.313983
LeftToes  4.52251e-011 4.07896e-011 -5.42348e-012
1093
root  -41.3593 35.105 -31.3003 173.181 -48.9018 175.157
RightUpLeg  -82.3373 -12.4372 58.8774
RightLeg  121.455 7.15522 -10.0237
RightFoot  -34.4967 -0.202436 0.160073
RightToes  6.35937e-011 1.2921e-014 -6.02303e-014
Spine  18.2455 -1.54715 2.52859
Spine1  -1.8103 1.46813 -4.62091
HEad  -7.22006 -43.3844 25.7743
LeftShoulder1  2.87325 -10.1875 -14.6692
LeftArm  61.0051 -25.3041 -69.4837
LeftForeArm  11.3986 -7.65384 -17.7095
LeftHand  -0.0278206 6.13047 0.00377394
RightShoulder  2.99665 7.07078 22.7688
RightArm  -1.2396 33.62 96.499
RightForeArm  121.763 -3.26349 5.29277
RightHand  2.09309 -20.3411 -16.3185
LeftUpLeg  -17.8554 -20.0933 -7.25887
LeftLeg  53.3572 1.09248 2.09317
LeftFoot  -22.351 0.0429144 -0.94664
LeftToes  4.52251e-011 4.07896e-011 -5.42348e-012
1094
root  -42.0121 36.0264 -32.4113 172.55 -47.282 176.544
RightUpLeg  -84.819 -12.3543 60.6371
RightLeg  120.479 7.09052 -10.3108
RightFoot  -34.9643 -0.0981486 0.671352
RightToes  6.35937e-011 1.2921e-014 -6.02303e-014
Spine  16.4172 -1.46487 2.06763
Spine1  -2.54646 1.37469 -4.16382
HEad  -3.40446 -45.5807 27.5968
LeftShoulder1  2.90751 -10.0115 -15.2605
LeftArm  59.9499 -24.8993 -69.1401
LeftForeArm  13.4157 -7.21053 -17.7793
LeftHand  -0.0313852 6.52977 0.38199
RightShoulder  3.00492 7.04956 22.9164
RightArm  -1.33634 33.5117 95.0357
RightForeArm  120.74 -3.37429 5.68735
RightHand  2.28947 -20.4849 -17.5871
LeftUpLeg  -13.2718 -20.6245 -6.43111
LeftLeg  48.6465 2.41748 3.4048
LeftFoot  -21.7663 -0.0984951 -2.51077
LeftToes  4.52251e-011 4.07896e-011 -5.42348e-012
1095
root  -42.6095 37.2734 -33.5495 171.29 -45.5015 178.424
RightUpLeg  -87.3628 -12.0983 62.164
RightLeg  120.627 6.67625 -9.62832
RightFoot  -35.0922 -0.0143736 1.07039
RightToes  6.35937e-011 1.2921e-014 -6.02303e-014
Spine  14.7141 -1.48979 2.45144
Spine1  -3.38241 1.41829 -4.19315
HEad  2.7221 -48.0003 26.9355
LeftShoulder1  2.98272 -9.92193 -16.0441
LeftArm  59.9635 -25.0387 -69.4853
LeftForeArm  15.4435 -7.14343 -17.7139
LeftHand  -0.0483072 7.18759 -0.539014
RightShoulder  2.92508 6.95354 22.3764
RightArm  -1.3168 33.7763 94.0053
RightForeArm  117.35 -3.58258 6.01582
RightHand  2.17091 -19.8109 -17.4856
LeftUpLeg  -8.57055 -21.1413 -5.1128
LeftLeg  43.5351 3.39044 3.86845
LeftFoot  -17.5493 -0.18916 -5.42392
LeftToes  4.52251e-011 4.07896e-011 -5.42348e-012
1096
root  -43.1101 38.561 -34.6477 170.43 -43.8959 179.237
RightUpLeg  -89.622 -11.7684 62.6735
RightLeg  121.465 6.24662 -8.69017
RightFoot  -35.8129 0.0718531 1.45907
RightToes  6.35937e-011 1.2921e-014 -6.02303e-014
Spine  13.4278 -1.58586 2.2153
Spine1  -3.93334 1.30998 -4.03865
HEad  10.0329 -49.6669 22.9586
LeftShoulder1  3.06677 -10.0686 -16.4594
LeftArm  60.1286 -25.1558 -70.0391
LeftForeArm  16.3799 -7.14413 -17.6733
LeftHand  -0.0328611 7.04546 0.357694
RightShoulder  2.85075 6.97353 21.5455
RightArm  -2.23054 34.3222 93.8182
RightForeArm  115.538 -3.53632 5.22173
RightHand  1.90988 -19.2502 -16.1121
LeftUpLeg  -5.41414 -21.4212 -4.5199
LeftLeg  40.6514 4.2026 4.26312
LeftFoot  -9.49437 0.208594 -9.40289
LeftToes  4.52251e-011 4.07896e-011 -5.42348e-012
1097
root  -43.5861 39.6746 -35.649 170.066 -41.1082 179.14
RightUpLeg  -90.2066 -11.3902 62.3063
RightLeg  122.022 5.32108 -7.16555
RightFoot  -36.4657 0.149147 1.78761
RightToes  6.35937e-011 1.2921e-014 -6.02303e-014
Spine  12.5946 -1.47871 2.99868
Spine1  -4.09344 1.64195 -5.05422
HEad  16.3813 -49.2812 16.946
LeftShoulder1  3.12856 -10.0221 -17.0515
LeftArm  56.6892 -25.2996 -70.202
LeftForeArm  20.4894 -6.18016 -17.8052
LeftHand  -0.031468 7.29563 0.468884
RightShoulder  2.81097 7.0448 20.9298
RightArm  -2.34225 34.6876 93.7884
RightForeArm  113.177 -3.62726 5.10746
RightHand  1.6645 -18.5726 -14.8695
LeftUpLeg  -4.44288 -20.498 -4.74781
LeftLeg  40.7249 5.06424 5.05935
LeftFoot  0.632432 0.79902 -7.64917
LeftToes  4.52251e-011 4.07896e-011 -5.42348e-012
